<svg width="20" height="20" viewBox="0 0 20 20" fill="none" xmlns="http://www.w3.org/2000/svg">
<path d="M10 5.83333C9.55799 5.83333 9.13407 5.65774 8.82151 5.34518C8.50895 5.03262 8.33335 4.60869 8.33335 4.16667C8.33335 3.72464 8.50895 3.30072 8.82151 2.98816C9.13407 2.67559 9.55799 2.5 10 2.5C10.442 2.5 10.866 2.67559 11.1785 2.98816C11.4911 3.30072 11.6667 3.72464 11.6667 4.16667C11.6667 4.60869 11.4911 5.03262 11.1785 5.34518C10.866 5.65774 10.442 5.83333 10 5.83333ZM10 11.6667C9.55799 11.6667 9.13407 11.4911 8.82151 11.1785C8.50895 10.866 8.33335 10.442 8.33335 10C8.33335 9.55797 8.50895 9.13405 8.82151 8.82149C9.13407 8.50893 9.55799 8.33333 10 8.33333C10.442 8.33333 10.866 8.50893 11.1785 8.82149C11.4911 9.13405 11.6667 9.55797 11.6667 10C11.6667 10.442 11.4911 10.866 11.1785 11.1785C10.866 11.4911 10.442 11.6667 10 11.6667ZM10 17.5C9.55799 17.5 9.13407 17.3244 8.82151 17.0118C8.50895 16.6993 8.33335 16.2754 8.33335 15.8333C8.33335 15.3913 8.50895 14.9674 8.82151 14.6548C9.13407 14.3423 9.55799 14.1667 10 14.1667C10.442 14.1667 10.866 14.3423 11.1785 14.6548C11.4911 14.9674 11.6667 15.3913 11.6667 15.8333C11.6667 16.2754 11.4911 16.6993 11.1785 17.0118C10.866 17.3244 10.442 17.5 10 17.5Z" fill="#959595"/>
</svg>
