<svg width="17" height="18" viewBox="0 0 17 18" fill="none" xmlns="http://www.w3.org/2000/svg">
<g clip-path="url(#clip0_2182_474)">
<path fill-rule="evenodd" clip-rule="evenodd" d="M7.96644 14.6282L4.20746 16.931C3.8166 17.1704 3.30563 17.0477 3.06619 16.6568C2.94924 16.4659 2.91438 16.2359 2.9695 16.0189L3.55139 13.7286C3.76144 12.9018 4.3272 12.2107 5.0962 11.8415L9.19705 9.87259C9.38824 9.7808 9.46882 9.55141 9.37703 9.36023C9.30269 9.20539 9.13458 9.11875 8.96534 9.14806L4.40057 9.93833C3.47266 10.099 2.52109 9.84274 1.7993 9.23787L0.357256 8.02939C0.0059349 7.73497 -0.040195 7.2115 0.254223 6.86018C0.397416 6.6893 0.603331 6.58322 0.82559 6.56584L5.23148 6.22103C5.54275 6.19667 5.81401 5.99969 5.93351 5.71124L7.63322 1.60824C7.80865 1.18476 8.29416 0.983681 8.71764 1.15911C8.92097 1.24334 9.08252 1.4049 9.16676 1.60824L10.8665 5.71124C10.986 5.99969 11.2572 6.19667 11.5685 6.22103L15.9987 6.56773C16.4556 6.60349 16.797 7.00294 16.7613 7.45992C16.7441 7.67975 16.6401 7.8837 16.4723 8.02675L13.0937 10.9071C12.8557 11.1099 12.7521 11.4291 12.8251 11.733L13.8639 16.048C13.9711 16.4936 13.6968 16.9418 13.2513 17.0491C13.0371 17.1007 12.8112 17.065 12.6234 16.9499L8.83355 14.6282C8.56748 14.4653 8.23249 14.4653 7.96644 14.6282Z" fill="url(#paint0_linear_2182_474)"/>
</g>
<defs>
<linearGradient id="paint0_linear_2182_474" x1="-1.18331e-06" y1="-5.5" x2="13.5" y2="23" gradientUnits="userSpaceOnUse">
<stop stop-color="#FAF530"/>
<stop offset="1" stop-color="#FBC421"/>
</linearGradient>
<clipPath id="clip0_2182_474">
<rect width="16.8" height="18" fill="white"/>
</clipPath>
</defs>
</svg>
